<svg width="61" height="61" viewBox="0 0 61 61" fill="none" xmlns="http://www.w3.org/2000/svg">
<circle cx="30.5" cy="30.5" r="28.5" fill="#D9D9D9" stroke="#4C2D1A" stroke-width="4"/>
<path d="M30.5 44.1669H45.875M37.9757 16.1879C38.6557 15.5078 39.5781 15.1257 40.5399 15.1257C41.5016 15.1257 42.424 15.5078 43.1041 16.1879C43.7842 16.8679 44.1662 17.7903 44.1662 18.7521C44.1662 19.7138 43.7842 20.6362 43.1041 21.3163L22.587 41.8351C22.1806 42.2415 21.6782 42.5388 21.1264 42.6995L16.22 44.1311C16.073 44.1739 15.9172 44.1765 15.7689 44.1385C15.6206 44.1005 15.4852 44.0233 15.3769 43.9151C15.2686 43.8068 15.1914 43.6714 15.1534 43.5231C15.1154 43.3747 15.118 43.2189 15.1609 43.0719L16.5925 38.1656C16.7534 37.6144 17.0507 37.1126 17.4569 36.7067L37.9757 16.1879Z" stroke="#4C2D1A" stroke-width="3.41667" stroke-linecap="round" stroke-linejoin="round"/>
</svg>
