<svg width="54" height="54" viewBox="0 0 54 54" fill="none" xmlns="http://www.w3.org/2000/svg">
<path d="M33.75 47.25H20.25M33.75 47.25V28.35C33.75 27.992 33.6078 27.6486 33.3546 27.3954C33.1014 27.1423 32.758 27 32.4 27H21.6C21.242 27 20.8986 27.1423 20.6454 27.3954C20.3922 27.6486 20.25 27.992 20.25 28.35V47.25M33.75 47.25H45.9C46.258 47.25 46.6014 47.1078 46.8546 46.8546C47.1078 46.6015 47.25 46.2581 47.25 45.9V40.725C47.25 40.367 47.1078 40.0236 46.8546 39.7704C46.6014 39.5173 46.258 39.375 45.9 39.375H35.1C34.742 39.375 34.3986 39.5173 34.1454 39.7704C33.8922 40.0236 33.75 40.367 33.75 40.725V47.25ZM20.25 47.25V36.225C20.25 35.867 20.1078 35.5236 19.8546 35.2704C19.6014 35.0173 19.258 34.875 18.9 34.875H8.1C7.74196 34.875 7.39858 35.0173 7.14541 35.2704C6.89223 35.5236 6.75 35.867 6.75 36.225V45.9C6.75 46.2581 6.89223 46.6015 7.14541 46.8546C7.39858 47.1078 7.74196 47.25 8.1 47.25H20.25ZM24.3135 11.5043L26.3588 7.16854C26.414 7.04459 26.5039 6.9393 26.6177 6.86541C26.7315 6.79152 26.8643 6.7522 27 6.7522C27.1357 6.7522 27.2685 6.79152 27.3823 6.86541C27.4961 6.9393 27.586 7.04459 27.6413 7.16854L29.6887 11.5043L34.2608 12.204C34.848 12.294 35.082 13.05 34.6568 13.482L31.3493 16.857L32.13 21.6225C32.229 22.2345 31.617 22.7025 31.0905 22.4123L27 20.1623L22.9095 22.4123C22.3853 22.7003 21.771 22.2345 21.87 21.6225L22.6508 16.857L19.3433 13.482C18.9158 13.05 19.152 12.294 19.737 12.204L24.3135 11.5043Z" stroke="white" stroke-opacity="0.7" stroke-width="3.375" stroke-linecap="round" stroke-linejoin="round"/>
</svg>
