<svg width="54" height="54" viewBox="0 0 54 54" fill="none" xmlns="http://www.w3.org/2000/svg">
<path opacity="0.2" d="M45.5625 10.125V21.8889C45.5625 36.8297 37.2516 48.9375 27 48.9375C16.7484 48.9375 8.4375 36.8297 8.4375 21.8932V10.125C8.43715 9.85057 8.50372 9.58022 8.63144 9.33736C8.75915 9.0945 8.94417 8.88644 9.17045 8.73123C9.39673 8.57601 9.65744 8.47832 9.93 8.44661C10.2026 8.4149 10.4787 8.45014 10.7346 8.54926C13.9219 9.78957 20.0623 11.7513 27 11.7513C33.9377 11.7513 40.0781 9.78957 43.2654 8.55348C43.5209 8.45448 43.7967 8.41921 44.069 8.4507C44.3412 8.4822 44.6016 8.57952 44.8278 8.73425C45.054 8.88899 45.2391 9.09647 45.3671 9.33878C45.4951 9.58109 45.5622 9.85092 45.5625 10.125Z" fill="black"/>
<path d="M33.4673 39.747C33.2195 40.1195 32.8338 40.3784 32.3951 40.4666C31.9564 40.5548 31.5007 40.4651 31.128 40.2174C29.757 39.3061 28.6875 38.8125 27 38.8125C25.3125 38.8125 24.243 39.3061 22.872 40.2174C22.4993 40.456 22.0479 40.5386 21.6149 40.4476C21.1819 40.3566 20.802 40.0992 20.557 39.7308C20.3119 39.3624 20.2214 38.9125 20.3048 38.478C20.3882 38.0435 20.639 37.6591 21.003 37.4077C22.7812 36.2243 24.4814 35.4375 27 35.4375C29.5186 35.4375 31.2187 36.2243 32.997 37.4077C33.3695 37.6556 33.6283 38.0413 33.7165 38.4799C33.8047 38.9186 33.7151 39.3744 33.4673 39.747ZM39.9389 24.0469C39.7738 23.8989 39.5812 23.7849 39.3721 23.7114C39.1629 23.6379 38.9414 23.6063 38.72 23.6184C38.4987 23.6306 38.2819 23.6862 38.082 23.7822C37.8822 23.8781 37.7032 24.0125 37.5553 24.1777C36.99 24.8105 35.6885 25.3041 34.6022 25.3041C33.5159 25.3041 32.2059 24.8084 31.6491 24.1777C31.5007 24.0109 31.321 23.875 31.1201 23.7777C30.9193 23.6804 30.7012 23.6236 30.4784 23.6106C30.2556 23.5976 30.0324 23.6286 29.8216 23.7018C29.6107 23.775 29.4164 23.8891 29.2496 24.0374C29.0829 24.1858 28.947 24.3655 28.8497 24.5663C28.7524 24.7672 28.6956 24.9853 28.6826 25.2081C28.6695 25.4309 28.7005 25.6541 28.7738 25.8649C28.847 26.0757 28.961 26.2701 29.1094 26.4368C30.3138 27.7826 32.5139 28.6875 34.5938 28.6875C36.6736 28.6875 38.8652 27.7826 40.0781 26.4368C40.2266 26.2711 40.3408 26.0776 40.4141 25.8676C40.4875 25.6575 40.5186 25.435 40.5057 25.2129C40.4927 24.9908 40.436 24.7734 40.3387 24.5733C40.2415 24.3732 40.1056 24.1943 39.9389 24.0469ZM47.25 10.125V21.889C47.25 29.449 45.2145 36.5808 41.5167 41.9661C37.6861 47.5475 32.5308 50.6145 27 50.6145C21.4692 50.6145 16.3139 47.5411 12.4833 41.9661C8.78555 36.585 6.75 29.4532 6.75 21.8932V10.125C6.75019 9.57651 6.88408 9.03631 7.14006 8.55118C7.39604 8.06605 7.76641 7.65063 8.2191 7.34087C8.67179 7.03112 9.19315 6.83636 9.73806 6.77348C10.283 6.71059 10.835 6.78146 11.3463 6.97996C14.31 8.13168 20.288 10.0639 27 10.0639C33.712 10.0639 39.6879 8.13168 42.6537 6.97996C43.165 6.78146 43.717 6.71059 44.2619 6.77348C44.8068 6.83636 45.3282 7.03112 45.7809 7.34087C46.2336 7.65063 46.604 8.06605 46.8599 8.55118C47.1159 9.03631 47.2498 9.57651 47.25 10.125ZM43.875 10.125C40.6898 11.3675 34.2626 13.4431 27 13.4431C19.7374 13.4431 13.3102 11.3632 10.125 10.125V21.8932C10.125 28.7782 11.9517 35.2308 15.2655 40.0613C18.4486 44.6977 22.6146 47.25 27 47.25C31.3854 47.25 35.5514 44.6977 38.7345 40.0613C42.0483 35.2266 43.875 28.7782 43.875 21.8932V10.125ZM24.8906 26.4326C25.0381 26.2664 25.1515 26.0728 25.2241 25.8628C25.2968 25.6528 25.3274 25.4305 25.3142 25.2087C25.301 24.9869 25.2442 24.7698 25.1471 24.5699C25.05 24.3701 24.9144 24.1913 24.7482 24.0437C24.582 23.8962 24.3884 23.7829 24.1784 23.7102C23.9684 23.6376 23.7461 23.607 23.5243 23.6202C23.3025 23.6334 23.0854 23.6902 22.8856 23.7873C22.6857 23.8844 22.5069 24.0199 22.3594 24.1861C21.7941 24.8189 20.4926 25.3125 19.4062 25.3125C18.3199 25.3125 17.01 24.8168 16.4531 24.1861C16.3053 24.0199 16.1263 23.8845 15.9261 23.7875C15.726 23.6905 15.5087 23.6338 15.2867 23.6208C15.0647 23.6078 14.8423 23.6386 14.6321 23.7115C14.422 23.7845 14.2284 23.8981 14.0621 24.0459C13.8959 24.1936 13.7605 24.3727 13.6635 24.5728C13.5665 24.773 13.5098 24.9903 13.4968 25.2123C13.4838 25.4343 13.5146 25.6567 13.5876 25.8668C13.6605 26.0769 13.7741 26.2706 13.9219 26.4368C15.1348 27.7826 17.3348 28.6875 19.4062 28.6875C21.4777 28.6875 23.6777 27.7826 24.8906 26.4368V26.4326Z" fill="#4C2D1A"/>
</svg>
