<svg width="121" height="32" viewBox="0 0 121 32" fill="none" xmlns="http://www.w3.org/2000/svg">
<path d="M118.761 4L107.256 16.832L106.61 17.5518L107.307 18.2207L118.518 29H2.01562L10.2959 18.1055L10.7236 17.543L10.3369 16.9521L1.85059 4H118.761Z" fill="#E25937" stroke="#4C2D1A" stroke-width="2"/>
<path d="M29.78 14.9H31.42V21.84L30.66 22C30.4067 22 30.1933 21.92 30.02 21.76C29.86 21.5867 29.78 21.3733 29.78 21.12V14.9ZM30.66 22V20.6H37.16C37.2267 20.6533 37.28 20.74 37.32 20.86C37.36 20.98 37.38 21.1133 37.38 21.26C37.38 21.4867 37.32 21.6667 37.2 21.8C37.08 21.9333 36.92 22 36.72 22H30.66ZM31.42 16.1H29.78V9.88C29.8467 9.85333 29.9467 9.82667 30.08 9.8C30.2267 9.76 30.38 9.74 30.54 9.74C30.8333 9.74 31.0533 9.8 31.2 9.92C31.3467 10.0267 31.42 10.2133 31.42 10.48V16.1ZM50.0941 15.92C50.0941 17.3067 49.8407 18.4733 49.3341 19.42C48.8274 20.3533 48.1341 21.06 47.2541 21.54C46.3874 22.02 45.4007 22.26 44.2941 22.26C43.2007 22.26 42.2141 22.02 41.3341 21.54C40.4541 21.06 39.7607 20.3533 39.2541 19.42C38.7474 18.4733 38.4941 17.3067 38.4941 15.92C38.4941 14.5333 38.7541 13.3733 39.2741 12.44C39.7941 11.4933 40.4874 10.78 41.3541 10.3C42.2341 9.82 43.2141 9.58 44.2941 9.58C45.3874 9.58 46.3674 9.82 47.2341 10.3C48.1141 10.78 48.8074 11.4933 49.3141 12.44C49.8341 13.3733 50.0941 14.5333 50.0941 15.92ZM48.4341 15.92C48.4341 14.3333 48.0541 13.1133 47.2941 12.26C46.5474 11.3933 45.5474 10.96 44.2941 10.96C43.0541 10.96 42.0541 11.3933 41.2941 12.26C40.5474 13.1133 40.1741 14.3333 40.1741 15.92C40.1741 17.5067 40.5474 18.7333 41.2941 19.6C42.0407 20.4533 43.0407 20.88 44.2941 20.88C45.5607 20.88 46.5674 20.4533 47.3141 19.6C48.0607 18.7333 48.4341 17.5067 48.4341 15.92ZM56.3431 20.9C57.2365 20.9 57.9098 20.7 58.3631 20.3C58.8298 19.8867 59.0631 19.36 59.0631 18.72C59.0631 18.1733 58.8831 17.72 58.5231 17.36C58.1765 17 57.6231 16.7133 56.8631 16.5L55.1231 15.98C54.5631 15.8067 54.0765 15.5867 53.6631 15.32C53.2498 15.04 52.9298 14.7 52.7031 14.3C52.4898 13.8867 52.3831 13.4067 52.3831 12.86C52.3831 11.8333 52.7565 11.0333 53.5031 10.46C54.2498 9.87333 55.2431 9.58 56.4831 9.58C57.2031 9.58 57.8431 9.66 58.4031 9.82C58.9765 9.96667 59.4231 10.16 59.7431 10.4C60.0765 10.64 60.2431 10.8933 60.2431 11.16C60.2431 11.3333 60.1965 11.4933 60.1031 11.64C60.0098 11.7733 59.8898 11.88 59.7431 11.96C59.4098 11.6933 58.9565 11.46 58.3831 11.26C57.8231 11.06 57.2098 10.96 56.5431 10.96C55.7698 10.96 55.1565 11.1333 54.7031 11.48C54.2498 11.8133 54.0231 12.2733 54.0231 12.86C54.0231 13.3267 54.1831 13.7067 54.5031 14C54.8365 14.2933 55.3698 14.5467 56.1031 14.76L57.3231 15.12C58.3765 15.4133 59.2031 15.84 59.8031 16.4C60.4165 16.96 60.7231 17.7333 60.7231 18.72C60.7231 19.7733 60.3365 20.6267 59.5631 21.28C58.8031 21.9333 57.7298 22.26 56.3431 22.26C55.5298 22.26 54.8165 22.1733 54.2031 22C53.6031 21.8133 53.1298 21.5867 52.7831 21.32C52.4498 21.04 52.2831 20.7667 52.2831 20.5C52.2831 20.2733 52.3498 20.0867 52.4831 19.94C52.6298 19.78 52.7965 19.6667 52.9831 19.6C53.2898 19.8933 53.7231 20.1867 54.2831 20.48C54.8431 20.76 55.5298 20.9 56.3431 20.9ZM66.8119 20.9C67.7052 20.9 68.3785 20.7 68.8319 20.3C69.2985 19.8867 69.5319 19.36 69.5319 18.72C69.5319 18.1733 69.3519 17.72 68.9919 17.36C68.6452 17 68.0919 16.7133 67.3319 16.5L65.5919 15.98C65.0319 15.8067 64.5452 15.5867 64.1319 15.32C63.7185 15.04 63.3985 14.7 63.1719 14.3C62.9585 13.8867 62.8519 13.4067 62.8519 12.86C62.8519 11.8333 63.2252 11.0333 63.9719 10.46C64.7185 9.87333 65.7119 9.58 66.9519 9.58C67.6719 9.58 68.3119 9.66 68.8719 9.82C69.4452 9.96667 69.8919 10.16 70.2119 10.4C70.5452 10.64 70.7119 10.8933 70.7119 11.16C70.7119 11.3333 70.6652 11.4933 70.5719 11.64C70.4785 11.7733 70.3585 11.88 70.2119 11.96C69.8785 11.6933 69.4252 11.46 68.8519 11.26C68.2919 11.06 67.6785 10.96 67.0119 10.96C66.2385 10.96 65.6252 11.1333 65.1719 11.48C64.7185 11.8133 64.4919 12.2733 64.4919 12.86C64.4919 13.3267 64.6519 13.7067 64.9719 14C65.3052 14.2933 65.8385 14.5467 66.5719 14.76L67.7919 15.12C68.8452 15.4133 69.6719 15.84 70.2719 16.4C70.8852 16.96 71.1919 17.7333 71.1919 18.72C71.1919 19.7733 70.8052 20.6267 70.0319 21.28C69.2719 21.9333 68.1985 22.26 66.8119 22.26C65.9985 22.26 65.2852 22.1733 64.6719 22C64.0719 21.8133 63.5985 21.5867 63.2519 21.32C62.9185 21.04 62.7519 20.7667 62.7519 20.5C62.7519 20.2733 62.8185 20.0867 62.9519 19.94C63.0985 19.78 63.2652 19.6667 63.4519 19.6C63.7585 19.8933 64.1919 20.1867 64.7519 20.48C65.3119 20.76 65.9985 20.9 66.8119 20.9ZM73.9206 14.68H75.5406V21.84C75.4873 21.8533 75.3873 21.8867 75.2406 21.94C75.094 21.98 74.9473 22 74.8006 22C74.534 22 74.3206 21.92 74.1606 21.76C74.0006 21.5867 73.9206 21.3733 73.9206 21.12V14.68ZM75.5406 17.04L73.9206 17.02V10.72C73.9206 10.4533 74.0006 10.24 74.1606 10.08C74.3206 9.92 74.534 9.84 74.8006 9.84C74.9473 9.84 75.094 9.86 75.2406 9.9C75.3873 9.94 75.4873 9.97333 75.5406 10V17.04ZM74.8006 16.44V15.08H80.8206C80.8606 15.1333 80.9006 15.22 80.9406 15.34C80.9806 15.46 81.0006 15.5867 81.0006 15.72C81.0006 15.9333 80.9473 16.1067 80.8406 16.24C80.734 16.3733 80.5806 16.44 80.3806 16.44H74.8006ZM74.8006 22V20.64H81.5406C81.5806 20.6933 81.6206 20.78 81.6606 20.9C81.7006 21.0067 81.7206 21.1333 81.7206 21.28C81.7206 21.4933 81.6673 21.6667 81.5606 21.8C81.454 21.9333 81.3006 22 81.1006 22H74.8006ZM74.8006 11.22V9.84H81.4406C81.4806 9.89333 81.5206 9.98 81.5606 10.1C81.6006 10.22 81.6206 10.3467 81.6206 10.48C81.6206 10.6933 81.5673 10.8733 81.4606 11.02C81.354 11.1533 81.2006 11.22 81.0006 11.22H74.8006ZM87.8275 20.9C88.7208 20.9 89.3942 20.7 89.8475 20.3C90.3142 19.8867 90.5475 19.36 90.5475 18.72C90.5475 18.1733 90.3675 17.72 90.0075 17.36C89.6608 17 89.1075 16.7133 88.3475 16.5L86.6075 15.98C86.0475 15.8067 85.5608 15.5867 85.1475 15.32C84.7342 15.04 84.4142 14.7 84.1875 14.3C83.9742 13.8867 83.8675 13.4067 83.8675 12.86C83.8675 11.8333 84.2408 11.0333 84.9875 10.46C85.7342 9.87333 86.7275 9.58 87.9675 9.58C88.6875 9.58 89.3275 9.66 89.8875 9.82C90.4608 9.96667 90.9075 10.16 91.2275 10.4C91.5608 10.64 91.7275 10.8933 91.7275 11.16C91.7275 11.3333 91.6808 11.4933 91.5875 11.64C91.4942 11.7733 91.3742 11.88 91.2275 11.96C90.8942 11.6933 90.4408 11.46 89.8675 11.26C89.3075 11.06 88.6942 10.96 88.0275 10.96C87.2542 10.96 86.6408 11.1333 86.1875 11.48C85.7342 11.8133 85.5075 12.2733 85.5075 12.86C85.5075 13.3267 85.6675 13.7067 85.9875 14C86.3208 14.2933 86.8542 14.5467 87.5875 14.76L88.8075 15.12C89.8608 15.4133 90.6875 15.84 91.2875 16.4C91.9008 16.96 92.2075 17.7333 92.2075 18.72C92.2075 19.7733 91.8208 20.6267 91.0475 21.28C90.2875 21.9333 89.2142 22.26 87.8275 22.26C87.0142 22.26 86.3008 22.1733 85.6875 22C85.0875 21.8133 84.6142 21.5867 84.2675 21.32C83.9342 21.04 83.7675 20.7667 83.7675 20.5C83.7675 20.2733 83.8342 20.0867 83.9675 19.94C84.1142 19.78 84.2808 19.6667 84.4675 19.6C84.7742 19.8933 85.2075 20.1867 85.7675 20.48C86.3275 20.76 87.0142 20.9 87.8275 20.9Z" fill="black"/>
</svg>
