<svg width="54" height="54" viewBox="0 0 54 54" fill="none" xmlns="http://www.w3.org/2000/svg">
<path fill-rule="evenodd" clip-rule="evenodd" d="M27 48.9375C30.8512 48.9431 34.6354 47.9301 37.9688 46.0013V38.8125C37.9688 36.7985 37.1687 34.867 35.7446 33.4429C34.3205 32.0188 32.389 31.2188 30.375 31.2188H23.625C21.611 31.2188 19.6795 32.0188 18.2554 33.4429C16.8313 34.867 16.0313 36.7985 16.0312 38.8125V46.0013C19.3646 47.9301 23.1488 48.9431 27 48.9375ZM43.0312 38.8125V41.9749C45.9496 38.8507 47.8915 34.9418 48.6182 30.7288C49.345 26.5158 48.8248 22.1822 47.1217 18.2609C45.4187 14.3395 42.6069 11.0012 39.0321 8.65635C35.4573 6.3115 31.2752 5.0623 27 5.0623C22.7248 5.0623 18.5427 6.3115 14.9679 8.65635C11.3931 11.0012 8.58131 14.3395 6.87825 18.2609C5.17518 22.1822 4.65504 26.5158 5.38176 30.7288C6.10847 34.9418 8.05037 38.8507 10.9688 41.9749V38.8125C10.9677 36.203 11.7734 33.6569 13.2754 31.523C14.7773 29.3891 16.9022 27.7716 19.359 26.892C18.0846 25.4261 17.2587 23.6246 16.9799 21.7023C16.701 19.7799 16.981 17.818 17.7865 16.0504C18.592 14.2829 19.8889 12.7843 21.5225 11.7335C23.1561 10.6826 25.0576 10.1239 27 10.1239C28.9424 10.1239 30.8439 10.6826 32.4775 11.7335C34.1111 12.7843 35.408 14.2829 36.2135 16.0504C37.0189 17.818 37.299 19.7799 37.0201 21.7023C36.7413 23.6246 35.9154 25.4261 34.641 26.892C37.0978 27.7716 39.2227 29.3891 40.7246 31.523C42.2266 33.6569 43.0323 36.203 43.0312 38.8125ZM27 54C34.1608 54 41.0284 51.1554 46.0919 46.0919C51.1554 41.0284 54 34.1608 54 27C54 19.8392 51.1554 12.9716 46.0919 7.90812C41.0284 2.84464 34.1608 0 27 0C19.8392 0 12.9716 2.84464 7.90812 7.90812C2.84464 12.9716 0 19.8392 0 27C0 34.1608 2.84464 41.0284 7.90812 46.0919C12.9716 51.1554 19.8392 54 27 54ZM32.0625 20.25C32.0625 21.5927 31.5291 22.8803 30.5797 23.8297C29.6303 24.7791 28.3427 25.3125 27 25.3125C25.6573 25.3125 24.3697 24.7791 23.4203 23.8297C22.4709 22.8803 21.9375 21.5927 21.9375 20.25C21.9375 18.9073 22.4709 17.6197 23.4203 16.6703C24.3697 15.7209 25.6573 15.1875 27 15.1875C28.3427 15.1875 29.6303 15.7209 30.5797 16.6703C31.5291 17.6197 32.0625 18.9073 32.0625 20.25Z" fill="white" fill-opacity="0.7"/>
</svg>
