<svg width="58" height="40" viewBox="0 0 58 40" fill="none" xmlns="http://www.w3.org/2000/svg">
<path d="M17.3482 12.4238V21.4887M22.444 16.9563H12.2568" stroke="white" stroke-opacity="0.7" stroke-width="3.30612" stroke-linecap="round" stroke-linejoin="round"/>
<path d="M3.86417 12.8245L2.06105 27.5019C1.80219 29.6093 2.37177 31.7318 3.67001 33.4978C4.96825 35.2637 6.9124 36.5604 9.16195 37.1609C11.4115 37.7614 13.8231 37.6273 15.9742 36.7821C18.1254 35.937 19.8791 34.4346 20.9282 32.5382L22.5037 29.6897H35.5019L37.0775 32.5382C38.1282 34.4318 39.8819 35.9312 42.0318 36.7744C44.1817 37.6175 46.5911 37.7507 48.8387 37.1506C51.0862 36.5505 53.0289 35.2554 54.327 33.4916C55.6252 31.7279 56.1962 29.6077 55.9402 27.5019L54.1415 12.8245C53.7849 9.92108 52.2564 7.23854 49.8484 5.29032C47.4405 3.34211 44.3223 2.26507 41.0907 2.26538H16.9149C13.6833 2.26507 10.5651 3.34211 8.1572 5.29032C5.74926 7.23854 4.22072 9.92108 3.86417 12.8245Z" stroke="white" stroke-opacity="0.7" stroke-width="3.375" stroke-linejoin="round"/>
<path d="M44.0873 14.3627C43.81 14.3469 43.5497 14.2378 43.3595 14.0574C43.1694 13.877 43.0635 13.6388 43.0635 13.3914C43.0635 13.144 43.1694 12.9059 43.3595 12.7255C43.5497 12.545 43.81 12.4359 44.0873 12.4202M44.0873 14.3627C44.2364 14.3711 44.3859 14.3522 44.5265 14.3072C44.6671 14.2623 44.7959 14.1921 44.9048 14.1011C45.0138 14.0101 45.1006 13.9001 45.1599 13.7781C45.2193 13.656 45.2499 13.5244 45.2499 13.3914C45.2499 13.2584 45.2193 13.1268 45.1599 13.0048C45.1006 12.8827 45.0138 12.7728 44.9048 12.6818C44.7959 12.5907 44.6671 12.5206 44.5265 12.4756C44.3859 12.4306 44.2364 12.4117 44.0873 12.4202M36.4481 19.2208C36.4657 18.9739 36.5883 18.7422 36.791 18.5729C36.9937 18.4036 37.2611 18.3094 37.5391 18.3094C37.817 18.3094 38.0845 18.4036 38.2872 18.5729C38.4898 18.7422 38.6124 18.9739 38.6301 19.2208M36.4481 19.2208C36.4386 19.3535 36.4598 19.4866 36.5103 19.6118C36.5608 19.7369 36.6397 19.8515 36.7419 19.9485C36.8441 20.0455 36.9676 20.1228 37.1047 20.1757C37.2418 20.2285 37.3897 20.2558 37.5391 20.2558C37.6885 20.2558 37.8363 20.2285 37.9734 20.1757C38.1105 20.1228 38.234 20.0455 38.3362 19.9485C38.4385 19.8515 38.5173 19.7369 38.5678 19.6118C38.6184 19.4866 38.6396 19.3535 38.6301 19.2208" stroke="white" stroke-opacity="0.7" stroke-width="3.30612" stroke-linecap="round" stroke-linejoin="round"/>
</svg>
