<svg width="121" height="30" viewBox="0 0 121 30" fill="none" xmlns="http://www.w3.org/2000/svg">
<path d="M118.761 4L107.256 16.832L106.61 17.5518L107.307 18.2207L118.518 29H2.01562L10.2959 18.1055L10.7236 17.543L10.3369 16.9521L1.85059 4H118.761Z" fill="#F6B255" stroke="#4C2D1A" stroke-width="2"/>
<path d="M45.18 12.86C45.2867 12.8067 45.42 12.76 45.58 12.72C45.74 12.68 45.9067 12.66 46.08 12.66C46.3467 12.66 46.5667 12.7067 46.74 12.8C46.9267 12.88 47.0467 13.0067 47.1 13.18C47.4333 14.14 47.7333 15.0333 48 15.86C48.28 16.6733 48.54 17.4667 48.78 18.24C49.0333 19 49.2867 19.7867 49.54 20.6H49.62C49.8733 19.4 50.12 18.2333 50.36 17.1C50.6 15.9533 50.8333 14.7933 51.06 13.62C51.2867 12.4467 51.4933 11.1933 51.68 9.86C51.8667 9.76667 52.0933 9.72 52.36 9.72C52.6133 9.72 52.8133 9.78 52.96 9.9C53.1067 10.0067 53.18 10.1733 53.18 10.4C53.18 10.6533 53.14 11.04 53.06 11.56C52.9933 12.0667 52.8933 12.6667 52.76 13.36C52.64 14.04 52.4933 14.7667 52.32 15.54C52.16 16.3 51.9867 17.0667 51.8 17.84C51.6133 18.6 51.4267 19.32 51.24 20C51.0533 20.68 50.8733 21.2733 50.7 21.78C50.58 21.8467 50.4267 21.9133 50.24 21.98C50.0533 22.0333 49.84 22.06 49.6 22.06C49.3067 22.06 49.06 22.0133 48.86 21.92C48.66 21.8267 48.5267 21.7 48.46 21.54C48.2733 21.0733 48.0467 20.46 47.78 19.7C47.5133 18.9267 47.2333 18.0867 46.94 17.18C46.66 16.26 46.3867 15.3533 46.12 14.46C45.8667 15.34 45.5933 16.2533 45.3 17.2C45.0067 18.1467 44.72 19.0267 44.44 19.84C44.1733 20.6533 43.9333 21.3067 43.72 21.8C43.6267 21.8533 43.48 21.9133 43.28 21.98C43.0933 22.0333 42.88 22.06 42.64 22.06C42.3467 22.06 42.1 22.0133 41.9 21.92C41.7133 21.8133 41.5867 21.6867 41.52 21.54C41.3867 21.2067 41.22 20.7067 41.02 20.04C40.8333 19.3733 40.6333 18.6133 40.42 17.76C40.2067 16.8933 39.9933 16 39.78 15.08C39.58 14.1467 39.3867 13.2533 39.2 12.4C39.0267 11.5333 38.8867 10.7667 38.78 10.1C38.8733 10.0067 39 9.92 39.16 9.84C39.32 9.76 39.4933 9.72 39.68 9.72C39.92 9.72 40.1067 9.78 40.24 9.9C40.3733 10.0067 40.4667 10.1933 40.52 10.46C40.6933 11.3 40.86 12.1133 41.02 12.9C41.18 13.6867 41.34 14.48 41.5 15.28C41.6733 16.08 41.8533 16.92 42.04 17.8C42.2267 18.6667 42.4333 19.6 42.66 20.6H42.74C42.9267 20 43.1067 19.4267 43.28 18.88C43.4533 18.3333 43.6333 17.7733 43.82 17.2C44.0067 16.6133 44.2067 15.9733 44.42 15.28C44.6467 14.5867 44.9 13.78 45.18 12.86ZM55.8547 14.74H57.4747V21.96C57.408 21.9867 57.308 22.0133 57.1747 22.04C57.0414 22.08 56.8947 22.1 56.7347 22.1C56.4414 22.1 56.2214 22.04 56.0747 21.92C55.928 21.8 55.8547 21.6133 55.8547 21.36V14.74ZM57.4747 16.08H55.8547V9.88C55.9214 9.85333 56.0214 9.82667 56.1547 9.8C56.3014 9.76 56.4547 9.74 56.6147 9.74C56.908 9.74 57.1214 9.8 57.2547 9.92C57.4014 10.0267 57.4747 10.2133 57.4747 10.48V16.08ZM61.0691 11.22L62.4291 11.1C62.4824 11.5133 62.5291 12 62.5691 12.56C62.6091 13.12 62.6357 13.7 62.6491 14.3C62.6757 14.8867 62.6891 15.4467 62.6891 15.98V21.96C62.6224 21.9867 62.5157 22.0133 62.3691 22.04C62.2357 22.08 62.0957 22.1 61.9491 22.1C61.6557 22.1 61.4357 22.0467 61.2891 21.94C61.1424 21.82 61.0691 21.6333 61.0691 21.38V11.22ZM70.7091 20.62L69.3291 20.74C69.1957 19.62 69.1157 18.48 69.0891 17.32C69.0757 16.1467 69.0691 15.0133 69.0691 13.92V9.88C69.1491 9.85333 69.2557 9.82667 69.3891 9.8C69.5224 9.76 69.6691 9.74 69.8291 9.74C70.1224 9.74 70.3424 9.8 70.4891 9.92C70.6357 10.0267 70.7091 10.2067 70.7091 10.46V20.62ZM70.7091 20.02V21.78C70.5891 21.8733 70.4357 21.9533 70.2491 22.02C70.0624 22.0867 69.8557 22.12 69.6291 22.12C69.3091 22.12 69.0357 22.06 68.8091 21.94C68.5824 21.8067 68.3757 21.5733 68.1891 21.24L64.3891 14.84C64.1891 14.48 63.9691 14.0867 63.7291 13.66C63.4891 13.22 63.2624 12.8067 63.0491 12.42C62.8357 12.02 62.6691 11.6933 62.5491 11.44L61.0691 11.82V10.08C61.1757 9.97333 61.3224 9.88667 61.5091 9.82C61.7091 9.75333 61.9224 9.72 62.1491 9.72C62.4691 9.72 62.7424 9.78667 62.9691 9.92C63.1957 10.04 63.4024 10.2667 63.5891 10.6L67.4091 17C67.6224 17.36 67.8424 17.76 68.0691 18.2C68.3091 18.6267 68.5291 19.04 68.7291 19.44C68.9291 19.8267 69.0891 20.1467 69.2091 20.4L70.7091 20.02ZM77.6322 20.9C78.5255 20.9 79.1989 20.7 79.6522 20.3C80.1189 19.8867 80.3522 19.36 80.3522 18.72C80.3522 18.1733 80.1722 17.72 79.8122 17.36C79.4655 17 78.9122 16.7133 78.1522 16.5L76.4122 15.98C75.8522 15.8067 75.3655 15.5867 74.9522 15.32C74.5389 15.04 74.2189 14.7 73.9922 14.3C73.7789 13.8867 73.6722 13.4067 73.6722 12.86C73.6722 11.8333 74.0455 11.0333 74.7922 10.46C75.5389 9.87333 76.5322 9.58 77.7722 9.58C78.4922 9.58 79.1322 9.66 79.6922 9.82C80.2655 9.96667 80.7122 10.16 81.0322 10.4C81.3655 10.64 81.5322 10.8933 81.5322 11.16C81.5322 11.3333 81.4855 11.4933 81.3922 11.64C81.2989 11.7733 81.1789 11.88 81.0322 11.96C80.6989 11.6933 80.2455 11.46 79.6722 11.26C79.1122 11.06 78.4989 10.96 77.8322 10.96C77.0589 10.96 76.4455 11.1333 75.9922 11.48C75.5389 11.8133 75.3122 12.2733 75.3122 12.86C75.3122 13.3267 75.4722 13.7067 75.7922 14C76.1255 14.2933 76.6589 14.5467 77.3922 14.76L78.6122 15.12C79.6655 15.4133 80.4922 15.84 81.0922 16.4C81.7055 16.96 82.0122 17.7333 82.0122 18.72C82.0122 19.7733 81.6255 20.6267 80.8522 21.28C80.0922 21.9333 79.0189 22.26 77.6322 22.26C76.8189 22.26 76.1055 22.1733 75.4922 22C74.8922 21.8133 74.4189 21.5867 74.0722 21.32C73.7389 21.04 73.5722 20.7667 73.5722 20.5C73.5722 20.2733 73.6389 20.0867 73.7722 19.94C73.9189 19.78 74.0855 19.6667 74.2722 19.6C74.5789 19.8933 75.0122 20.1867 75.5722 20.48C76.1322 20.76 76.8189 20.9 77.6322 20.9Z" fill="black"/>
</svg>
